<svg width="16" height="16" viewBox="0 0 16 16" fill="none" xmlns="http://www.w3.org/2000/svg">
<path d="M1.90931 6.36275H1.27295V2.54648C1.27295 2.19393 1.56249 1.9082 1.90422 1.9082H13.3689C13.4525 1.90803 13.5352 1.92447 13.6124 1.95657C13.6895 1.98867 13.7595 2.03579 13.8182 2.09519C13.8769 2.15459 13.9233 2.22507 13.9545 2.30255C13.9858 2.38003 14.0013 2.46294 14.0002 2.54648V6.36275H13.3639V12.727C13.3641 12.8103 13.348 12.8927 13.3163 12.9697C13.2847 13.0467 13.2382 13.1167 13.1796 13.1758C13.1209 13.2348 13.0512 13.2817 12.9744 13.3138C12.8976 13.3459 12.8152 13.3625 12.7319 13.3628H2.54122C2.45799 13.3625 2.37562 13.3459 2.29882 13.3138C2.22201 13.2817 2.15228 13.2348 2.0936 13.1758C2.03492 13.1167 1.98845 13.0467 1.95683 12.9697C1.92521 12.8927 1.90906 12.8103 1.90931 12.727V6.36275ZM12.0911 6.36275H3.18204V12.09H12.0911V6.36275ZM2.54568 3.18093V5.09002H12.7275V3.18093H2.54568ZM5.72749 7.63548H9.54568V8.9082H5.72749V7.63548Z" fill="#EA580C"/>
</svg>
