<svg width="11" height="16" viewBox="0 0 11 16" fill="none" xmlns="http://www.w3.org/2000/svg">
<path d="M10.1816 15.2725H0V0H10.1816V15.2725Z" stroke="#E5E7EB"/>
<g clip-path="url(#clip0_155_9441)">
<g clip-path="url(#clip1_155_9441)">
<path d="M3.33659 12.091H10.8183V13.3637H-0.63623V10.6636L5.66377 4.3636L8.36322 7.06433L3.33595 12.091H3.33659ZM6.56295 3.46442L7.91331 2.11405C8.03265 1.99475 8.19448 1.92773 8.36322 1.92773C8.53197 1.92773 8.6938 1.99475 8.81313 2.11405L10.6134 3.91433C10.7327 4.03366 10.7997 4.19549 10.7997 4.36423C10.7997 4.53298 10.7327 4.69481 10.6134 4.81414L9.26304 6.16387L6.56359 3.46442H6.56295Z" fill="#2563EB"/>
</g>
</g>
<defs>
<clipPath id="clip0_155_9441">
<path d="M0 2.54492H10.1818V12.7267H0V2.54492Z" fill="white"/>
</clipPath>
<clipPath id="clip1_155_9441">
<rect width="15.2727" height="15.2727" fill="white" transform="translate(-2.54541)"/>
</clipPath>
</defs>
</svg>
