<svg width="32" height="32" viewBox="0 0 32 32" fill="none" xmlns="http://www.w3.org/2000/svg">
<path d="M24 0C28.4183 0 32 3.58172 32 8V24C32 28.4183 28.4183 32 24 32H8C3.58172 32 0 28.4183 0 24V8C0 3.58172 3.58172 0 8 0H24Z" fill="url(#paint0_linear_33_5466)"/>
<path d="M24 0C28.4183 0 32 3.58172 32 8V24C32 28.4183 28.4183 32 24 32H8C3.58172 32 0 28.4183 0 24V8C0 3.58172 3.58172 0 8 0H24Z" stroke="#E5E7EB"/>
<path d="M24.75 26H7.25V6H24.75V26Z" stroke="#E5E7EB"/>
<g clip-path="url(#clip0_33_5466)">
<path d="M15.9999 9.625C15.7784 9.625 15.5597 9.66328 15.3519 9.73711L7.68196 12.507C7.4222 12.6027 7.24993 12.8488 7.24993 13.125C7.24993 13.4012 7.4222 13.6473 7.68196 13.743L9.26517 14.3145C8.81673 15.0199 8.56243 15.8539 8.56243 16.7316V17.5C8.56243 18.2766 8.26712 19.0777 7.95267 19.7094C7.77493 20.0648 7.57259 20.4148 7.33743 20.7375C7.24993 20.8551 7.22532 21.0082 7.27454 21.1477C7.32376 21.2871 7.4386 21.391 7.58079 21.4266L9.33079 21.8641C9.44564 21.8941 9.56868 21.8723 9.66985 21.8094C9.77103 21.7465 9.84212 21.6426 9.86399 21.525C10.0992 20.3547 9.98157 19.3047 9.80657 18.5527C9.71907 18.1645 9.60149 17.768 9.43743 17.4043V16.7316C9.43743 15.9059 9.71634 15.1266 10.2003 14.5031C10.5531 14.0793 11.0097 13.7375 11.5456 13.527L15.8386 11.8398C16.0628 11.7523 16.3171 11.8617 16.4046 12.0859C16.4921 12.3102 16.3827 12.5645 16.1585 12.652L11.8656 14.3391C11.5265 14.473 11.2284 14.6781 10.9851 14.9297L15.3492 16.5047C15.557 16.5785 15.7757 16.6168 15.9972 16.6168C16.2187 16.6168 16.4374 16.5785 16.6452 16.5047L24.3179 13.743C24.5777 13.65 24.7499 13.4012 24.7499 13.125C24.7499 12.8488 24.5777 12.6027 24.3179 12.507L16.648 9.73711C16.4402 9.66328 16.2214 9.625 15.9999 9.625ZM10.7499 19.9062C10.7499 20.8715 13.1015 21.875 15.9999 21.875C18.8984 21.875 21.2499 20.8715 21.2499 19.9062L20.8316 15.9305L16.9433 17.3359C16.6398 17.4453 16.3199 17.5 15.9999 17.5C15.68 17.5 15.3574 17.4453 15.0566 17.3359L11.1683 15.9305L10.7499 19.9062Z" fill="white"/>
</g>
<defs>
<linearGradient id="paint0_linear_33_5466" x1="32" y1="16" x2="0.475533" y2="15.2426" gradientUnits="userSpaceOnUse">
<stop stop-color="#A31DE5"/>
<stop offset="0.716346" stop-color="#7158E2"/>
</linearGradient>
<clipPath id="clip0_33_5466">
<path d="M7.25 8.75H24.75V22.75H7.25V8.75Z" fill="white"/>
</clipPath>
</defs>
</svg>
