<svg width="207" height="32" viewBox="0 0 207 32" fill="none" xmlns="http://www.w3.org/2000/svg">
<path d="M207 32H0V0H207V32Z" stroke="#E5E7EB"/>
<path d="M24 0C28.4183 0 32 3.58172 32 8V24C32 28.4183 28.4183 32 24 32H8C3.58172 32 0 28.4183 0 24V8C0 3.58172 3.58172 0 8 0H24Z" fill="url(#paint0_linear_33_5465)"/>
<path d="M24 0C28.4183 0 32 3.58172 32 8V24C32 28.4183 28.4183 32 24 32H8C3.58172 32 0 28.4183 0 24V8C0 3.58172 3.58172 0 8 0H24Z" stroke="#E5E7EB"/>
<path d="M24.75 26H7.25V6H24.75V26Z" stroke="#E5E7EB"/>
<g clip-path="url(#clip0_33_5465)">
<path d="M15.9999 9.625C15.7784 9.625 15.5597 9.66328 15.3519 9.73711L7.68196 12.507C7.4222 12.6027 7.24993 12.8488 7.24993 13.125C7.24993 13.4012 7.4222 13.6473 7.68196 13.743L9.26517 14.3145C8.81673 15.0199 8.56243 15.8539 8.56243 16.7316V17.5C8.56243 18.2766 8.26712 19.0777 7.95267 19.7094C7.77493 20.0648 7.57259 20.4148 7.33743 20.7375C7.24993 20.8551 7.22532 21.0082 7.27454 21.1477C7.32376 21.2871 7.4386 21.391 7.58079 21.4266L9.33079 21.8641C9.44564 21.8941 9.56868 21.8723 9.66985 21.8094C9.77103 21.7465 9.84212 21.6426 9.86399 21.525C10.0992 20.3547 9.98157 19.3047 9.80657 18.5527C9.71907 18.1645 9.60149 17.768 9.43743 17.4043V16.7316C9.43743 15.9059 9.71634 15.1266 10.2003 14.5031C10.5531 14.0793 11.0097 13.7375 11.5456 13.527L15.8386 11.8398C16.0628 11.7523 16.3171 11.8617 16.4046 12.0859C16.4921 12.3102 16.3827 12.5645 16.1585 12.652L11.8656 14.3391C11.5265 14.473 11.2284 14.6781 10.9851 14.9297L15.3492 16.5047C15.557 16.5785 15.7757 16.6168 15.9972 16.6168C16.2187 16.6168 16.4374 16.5785 16.6452 16.5047L24.3179 13.743C24.5777 13.65 24.7499 13.4012 24.7499 13.125C24.7499 12.8488 24.5777 12.6027 24.3179 12.507L16.648 9.73711C16.4402 9.66328 16.2214 9.625 15.9999 9.625ZM10.7499 19.9062C10.7499 20.8715 13.1015 21.875 15.9999 21.875C18.8984 21.875 21.2499 20.8715 21.2499 19.9062L20.8316 15.9305L16.9433 17.3359C16.6398 17.4453 16.3199 17.5 15.9999 17.5C15.68 17.5 15.3574 17.4453 15.0566 17.3359L11.1683 15.9305L10.7499 19.9062Z" fill="white"/>
</g>
<path d="M47.7713 23H44.4759L49.4972 8.45455H53.4602L58.4744 23H55.179L51.5355 11.7784H51.4219L47.7713 23ZM47.5653 17.2827H55.3494V19.6832H47.5653V17.2827ZM68.9911 15.2017L66.2212 15.3722C66.1739 15.1354 66.0721 14.9223 65.9158 14.733C65.7596 14.5388 65.5536 14.3849 65.2979 14.2713C65.047 14.1529 64.7463 14.0938 64.396 14.0938C63.9272 14.0938 63.5318 14.1932 63.2099 14.392C62.8879 14.5862 62.7269 14.8466 62.7269 15.1733C62.7269 15.4337 62.8311 15.6539 63.0394 15.8338C63.2478 16.0137 63.6052 16.1581 64.1119 16.267L66.0863 16.6648C67.1469 16.8826 67.9376 17.233 68.4585 17.7159C68.9793 18.1989 69.2397 18.8333 69.2397 19.6193C69.2397 20.3343 69.029 20.9616 68.6076 21.5014C68.1909 22.0412 67.618 22.4626 66.8888 22.7656C66.1644 23.0639 65.3287 23.2131 64.3817 23.2131C62.9376 23.2131 61.7871 22.9124 60.93 22.3111C60.0778 21.705 59.5782 20.8812 59.4315 19.8395L62.4073 19.6832C62.4973 20.1236 62.7151 20.4598 63.0607 20.6918C63.4064 20.919 63.8491 21.0327 64.3888 21.0327C64.9192 21.0327 65.3453 20.9309 65.6673 20.7273C65.994 20.5189 66.1597 20.2514 66.1644 19.9247C66.1597 19.6501 66.0437 19.4252 65.8164 19.25C65.5891 19.0701 65.2388 18.9328 64.7653 18.8381L62.8761 18.4616C61.8107 18.2486 61.0176 17.8793 60.4968 17.3537C59.9807 16.8281 59.7227 16.1581 59.7227 15.3438C59.7227 14.643 59.9121 14.0393 60.2908 13.5327C60.6744 13.026 61.2118 12.6354 61.9031 12.3608C62.5991 12.0862 63.4135 11.9489 64.3462 11.9489C65.7241 11.9489 66.8084 12.2401 67.5991 12.8224C68.3945 13.4048 68.8585 14.1979 68.9911 15.2017ZM80.2216 15.2017L77.4517 15.3722C77.4044 15.1354 77.3026 14.9223 77.1463 14.733C76.9901 14.5388 76.7841 14.3849 76.5284 14.2713C76.2775 14.1529 75.9768 14.0938 75.6264 14.0938C75.1577 14.0938 74.7623 14.1932 74.4403 14.392C74.1184 14.5862 73.9574 14.8466 73.9574 15.1733C73.9574 15.4337 74.0616 15.6539 74.2699 15.8338C74.4782 16.0137 74.8357 16.1581 75.3423 16.267L77.3168 16.6648C78.3774 16.8826 79.1681 17.233 79.6889 17.7159C80.2098 18.1989 80.4702 18.8333 80.4702 19.6193C80.4702 20.3343 80.2595 20.9616 79.8381 21.5014C79.4214 22.0412 78.8485 22.4626 78.1193 22.7656C77.3949 23.0639 76.5592 23.2131 75.6122 23.2131C74.1681 23.2131 73.0175 22.9124 72.1605 22.3111C71.3082 21.705 70.8087 20.8812 70.6619 19.8395L73.6378 19.6832C73.7277 20.1236 73.9455 20.4598 74.2912 20.6918C74.6368 20.919 75.0795 21.0327 75.6193 21.0327C76.1496 21.0327 76.5758 20.9309 76.8977 20.7273C77.2244 20.5189 77.3902 20.2514 77.3949 19.9247C77.3902 19.6501 77.2741 19.4252 77.0469 19.25C76.8196 19.0701 76.4692 18.9328 75.9957 18.8381L74.1065 18.4616C73.0412 18.2486 72.2481 17.8793 71.7273 17.3537C71.2112 16.8281 70.9531 16.1581 70.9531 15.3438C70.9531 14.643 71.1425 14.0393 71.5213 13.5327C71.9048 13.026 72.4422 12.6354 73.1335 12.3608C73.8295 12.0862 74.6439 11.9489 75.5767 11.9489C76.9545 11.9489 78.0388 12.2401 78.8295 12.8224C79.625 13.4048 80.089 14.1979 80.2216 15.2017ZM87.3469 23.2131C86.2248 23.2131 85.2589 22.9858 84.4492 22.5312C83.6443 22.072 83.024 21.4233 82.5884 20.5852C82.1528 19.7424 81.935 18.7457 81.935 17.5952C81.935 16.473 82.1528 15.4882 82.5884 14.6406C83.024 13.7931 83.6372 13.1326 84.4279 12.6591C85.2234 12.1856 86.1561 11.9489 87.2262 11.9489C87.9459 11.9489 88.6159 12.0649 89.2362 12.2969C89.8612 12.5241 90.4057 12.8674 90.8697 13.3267C91.3384 13.786 91.703 14.3636 91.9634 15.0597C92.2238 15.7509 92.354 16.5606 92.354 17.4886V18.3196H83.1424V16.4446H89.506C89.506 16.009 89.4113 15.6231 89.2219 15.2869C89.0326 14.9508 88.7698 14.688 88.4336 14.4986C88.1022 14.3045 87.7163 14.2074 87.2759 14.2074C86.8166 14.2074 86.4094 14.3139 86.0543 14.527C85.704 14.7353 85.4293 15.017 85.2305 15.3722C85.0316 15.7225 84.9298 16.1132 84.9251 16.544V18.3267C84.9251 18.8665 85.0245 19.3329 85.2234 19.7259C85.427 20.1188 85.7134 20.4219 86.0827 20.6349C86.4521 20.848 86.89 20.9545 87.3967 20.9545C87.7328 20.9545 88.0406 20.9072 88.32 20.8125C88.5993 20.7178 88.8384 20.5758 89.0373 20.3864C89.2362 20.197 89.3877 19.965 89.4918 19.6903L92.2901 19.875C92.1481 20.5473 91.8569 21.1345 91.4165 21.6364C90.9809 22.1335 90.4175 22.5218 89.7262 22.8011C89.0397 23.0758 88.2466 23.2131 87.3469 23.2131ZM103.405 15.2017L100.635 15.3722C100.588 15.1354 100.486 14.9223 100.33 14.733C100.174 14.5388 99.9677 14.3849 99.712 14.2713C99.4611 14.1529 99.1604 14.0938 98.81 14.0938C98.3413 14.0938 97.9459 14.1932 97.6239 14.392C97.302 14.5862 97.141 14.8466 97.141 15.1733C97.141 15.4337 97.2451 15.6539 97.4535 15.8338C97.6618 16.0137 98.0193 16.1581 98.5259 16.267L100.5 16.6648C101.561 16.8826 102.352 17.233 102.873 17.7159C103.393 18.1989 103.654 18.8333 103.654 19.6193C103.654 20.3343 103.443 20.9616 103.022 21.5014C102.605 22.0412 102.032 22.4626 101.303 22.7656C100.578 23.0639 99.7428 23.2131 98.7958 23.2131C97.3517 23.2131 96.2011 22.9124 95.3441 22.3111C94.4918 21.705 93.9923 20.8812 93.8455 19.8395L96.8214 19.6832C96.9113 20.1236 97.1291 20.4598 97.4748 20.6918C97.8204 20.919 98.2631 21.0327 98.8029 21.0327C99.3332 21.0327 99.7594 20.9309 100.081 20.7273C100.408 20.5189 100.574 20.2514 100.578 19.9247C100.574 19.6501 100.458 19.4252 100.23 19.25C100.003 19.0701 99.6528 18.9328 99.1793 18.8381L97.2901 18.4616C96.2248 18.2486 95.4317 17.8793 94.9109 17.3537C94.3948 16.8281 94.1367 16.1581 94.1367 15.3438C94.1367 14.643 94.3261 14.0393 94.7049 13.5327C95.0884 13.026 95.6258 12.6354 96.3171 12.3608C97.0131 12.0862 97.8275 11.9489 98.7603 11.9489C100.138 11.9489 101.222 12.2401 102.013 12.8224C102.809 13.4048 103.273 14.1979 103.405 15.2017ZM114.636 15.2017L111.866 15.3722C111.818 15.1354 111.717 14.9223 111.56 14.733C111.404 14.5388 111.198 14.3849 110.942 14.2713C110.692 14.1529 110.391 14.0938 110.04 14.0938C109.572 14.0938 109.176 14.1932 108.854 14.392C108.532 14.5862 108.371 14.8466 108.371 15.1733C108.371 15.4337 108.476 15.6539 108.684 15.8338C108.892 16.0137 109.25 16.1581 109.756 16.267L111.731 16.6648C112.791 16.8826 113.582 17.233 114.103 17.7159C114.624 18.1989 114.884 18.8333 114.884 19.6193C114.884 20.3343 114.674 20.9616 114.252 21.5014C113.835 22.0412 113.263 22.4626 112.533 22.7656C111.809 23.0639 110.973 23.2131 110.026 23.2131C108.582 23.2131 107.432 22.9124 106.575 22.3111C105.722 21.705 105.223 20.8812 105.076 19.8395L108.052 19.6832C108.142 20.1236 108.36 20.4598 108.705 20.6918C109.051 20.919 109.494 21.0327 110.033 21.0327C110.564 21.0327 110.99 20.9309 111.312 20.7273C111.638 20.5189 111.804 20.2514 111.809 19.9247C111.804 19.6501 111.688 19.4252 111.461 19.25C111.234 19.0701 110.883 18.9328 110.41 18.8381L108.521 18.4616C107.455 18.2486 106.662 17.8793 106.141 17.3537C105.625 16.8281 105.367 16.1581 105.367 15.3438C105.367 14.643 105.557 14.0393 105.935 13.5327C106.319 13.026 106.856 12.6354 107.548 12.3608C108.244 12.0862 109.058 11.9489 109.991 11.9489C111.369 11.9489 112.453 12.2401 113.244 12.8224C114.039 13.4048 114.503 14.1979 114.636 15.2017ZM116.846 23V8.45455H119.922V14.456H126.164V8.45455H129.233V23H126.164V16.9915H119.922V23H116.846ZM138.707 18.3551V12.0909H141.733V23H138.828V21.0185H138.714C138.468 21.6577 138.058 22.1714 137.485 22.5597C136.917 22.9479 136.224 23.142 135.404 23.142C134.675 23.142 134.034 22.9763 133.48 22.6449C132.926 22.3134 132.493 21.8423 132.18 21.2315C131.872 20.6207 131.716 19.8892 131.711 19.0369V12.0909H134.737V18.4972C134.742 19.1411 134.914 19.6501 135.255 20.0241C135.596 20.3982 136.053 20.5852 136.626 20.5852C136.991 20.5852 137.332 20.5024 137.649 20.3366C137.966 20.1662 138.222 19.9152 138.416 19.5838C138.615 19.2524 138.712 18.8428 138.707 18.3551ZM144.21 23V8.45455H147.235V13.9233H147.327C147.46 13.6297 147.652 13.3314 147.903 13.0284C148.158 12.7206 148.49 12.465 148.897 12.2614C149.309 12.053 149.82 11.9489 150.431 11.9489C151.227 11.9489 151.96 12.1572 152.633 12.5739C153.305 12.9858 153.843 13.6084 154.245 14.4418C154.647 15.2704 154.849 16.3097 154.849 17.5597C154.849 18.7765 154.652 19.804 154.259 20.642C153.871 21.4754 153.341 22.1075 152.668 22.5384C152.001 22.9645 151.253 23.1776 150.424 23.1776C149.837 23.1776 149.337 23.0805 148.925 22.8864C148.518 22.6922 148.184 22.4484 147.924 22.1548C147.664 21.8565 147.465 21.5559 147.327 21.2528H147.192V23H144.21ZM147.171 17.5455C147.171 18.1941 147.261 18.7599 147.441 19.2429C147.621 19.7259 147.881 20.1023 148.222 20.3722C148.563 20.6373 148.978 20.7699 149.465 20.7699C149.958 20.7699 150.374 20.6349 150.715 20.3651C151.056 20.0904 151.314 19.7116 151.489 19.2287C151.669 18.741 151.759 18.1799 151.759 17.5455C151.759 16.9157 151.672 16.3617 151.496 15.8835C151.321 15.4053 151.063 15.0312 150.722 14.7614C150.381 14.4915 149.962 14.3565 149.465 14.3565C148.973 14.3565 148.556 14.4867 148.215 14.7472C147.879 15.0076 147.621 15.3769 147.441 15.8551C147.261 16.3333 147.171 16.8968 147.171 17.5455Z" fill="#111827"/>
<defs>
<linearGradient id="paint0_linear_33_5465" x1="32" y1="16" x2="0.475533" y2="15.2426" gradientUnits="userSpaceOnUse">
<stop stop-color="#A31DE5"/>
<stop offset="0.716346" stop-color="#7158E2"/>
</linearGradient>
<clipPath id="clip0_33_5465">
<path d="M7.25 8.75H24.75V22.75H7.25V8.75Z" fill="white"/>
</clipPath>
</defs>
</svg>
